G04 Layer: BottomSolderMaskLayer*
G04 EasyEDA v6.1.41, Thu, 16 May 2019 00:08:59 GMT*
G04 b21515e386d141b59637374f5c53cbe5,dfa15b47affc40b8846523cd8aea0214,10*
G04 Gerber Generator version 0.2*
G04 Scale: 100 percent, Rotated: No, Reflected: No *
G04 Dimensions in millimeters *
G04 leading zeros omitted , absolute positions ,3 integer and 3 decimal *
%FSLAX33Y33*%
%MOMM*%
G90*
G71D02*

%ADD25R,2.103196X2.103196*%
%ADD26C,2.103196*%
%ADD27R,2.108200X2.108200*%
%ADD28C,2.108200*%
%ADD29R,1.778000X1.778000*%
%ADD30C,1.778000*%
%ADD31C,2.082800*%
%ADD32R,1.602740X1.602740*%
%ADD33C,1.602740*%

%LPD*%
G36*
G01X45930Y28798D02*
G01X45486Y29243D01*
G01X45486Y29870D01*
G01X45930Y30315D01*
G01X46560Y30315D01*
G01X47005Y29870D01*
G01X47005Y29243D01*
G01X46560Y28798D01*
G01X45930Y28798D01*
G37*
G36*
G01X43390Y28798D02*
G01X42946Y29243D01*
G01X42946Y29870D01*
G01X43390Y30315D01*
G01X44020Y30315D01*
G01X44465Y29870D01*
G01X44465Y29243D01*
G01X44020Y28798D01*
G01X43390Y28798D01*
G37*
G36*
G01X40850Y28798D02*
G01X40406Y29243D01*
G01X40406Y29870D01*
G01X40850Y30315D01*
G01X41480Y30315D01*
G01X41925Y29870D01*
G01X41925Y29243D01*
G01X41480Y28798D01*
G01X40850Y28798D01*
G37*
G36*
G01X38310Y28798D02*
G01X37866Y29243D01*
G01X37866Y29870D01*
G01X38310Y30315D01*
G01X38940Y30315D01*
G01X39385Y29870D01*
G01X39385Y29243D01*
G01X38940Y28798D01*
G01X38310Y28798D01*
G37*
G36*
G01X35770Y28798D02*
G01X35326Y29243D01*
G01X35326Y29870D01*
G01X35770Y30315D01*
G01X36400Y30315D01*
G01X36845Y29870D01*
G01X36845Y29243D01*
G01X36400Y28798D01*
G01X35770Y28798D01*
G37*
G36*
G01X33230Y28798D02*
G01X32786Y29243D01*
G01X32786Y29870D01*
G01X33230Y30315D01*
G01X33860Y30315D01*
G01X34305Y29870D01*
G01X34305Y29243D01*
G01X33860Y28798D01*
G01X33230Y28798D01*
G37*
G36*
G01X30690Y28798D02*
G01X30246Y29243D01*
G01X30246Y29870D01*
G01X30690Y30315D01*
G01X31320Y30315D01*
G01X31765Y29870D01*
G01X31765Y29243D01*
G01X31320Y28798D01*
G01X30690Y28798D01*
G37*
G36*
G01X28150Y28798D02*
G01X27706Y29243D01*
G01X27706Y29870D01*
G01X28150Y30315D01*
G01X28780Y30315D01*
G01X29225Y29870D01*
G01X29225Y29243D01*
G01X28780Y28798D01*
G01X28150Y28798D01*
G37*
G36*
G01X25610Y28798D02*
G01X25166Y29243D01*
G01X25166Y29870D01*
G01X25610Y30315D01*
G01X26240Y30315D01*
G01X26685Y29870D01*
G01X26685Y29243D01*
G01X26240Y28798D01*
G01X25610Y28798D01*
G37*
G36*
G01X23070Y28798D02*
G01X22626Y29243D01*
G01X22626Y29870D01*
G01X23070Y30315D01*
G01X23700Y30315D01*
G01X24145Y29870D01*
G01X24145Y29243D01*
G01X23700Y28798D01*
G01X23070Y28798D01*
G37*
G36*
G01X20530Y28798D02*
G01X20086Y29243D01*
G01X20086Y29870D01*
G01X20530Y30315D01*
G01X21160Y30315D01*
G01X21605Y29870D01*
G01X21605Y29243D01*
G01X21160Y28798D01*
G01X20530Y28798D01*
G37*
G36*
G01X17990Y28798D02*
G01X17546Y29243D01*
G01X17546Y29870D01*
G01X17990Y30315D01*
G01X18620Y30315D01*
G01X19065Y29870D01*
G01X19065Y29243D01*
G01X18620Y28798D01*
G01X17990Y28798D01*
G37*
G36*
G01X15450Y28798D02*
G01X15006Y29243D01*
G01X15006Y29870D01*
G01X15450Y30315D01*
G01X16080Y30315D01*
G01X16525Y29870D01*
G01X16525Y29243D01*
G01X16080Y28798D01*
G01X15450Y28798D01*
G37*
G36*
G01X12910Y28798D02*
G01X12466Y29243D01*
G01X12466Y29870D01*
G01X12910Y30315D01*
G01X13540Y30315D01*
G01X13985Y29870D01*
G01X13985Y29243D01*
G01X13540Y28798D01*
G01X12910Y28798D01*
G37*
G36*
G01X10370Y28798D02*
G01X9926Y29243D01*
G01X9926Y29870D01*
G01X10370Y30315D01*
G01X11000Y30315D01*
G01X11445Y29870D01*
G01X11445Y29243D01*
G01X11000Y28798D01*
G01X10370Y28798D01*
G37*
G36*
G01X45930Y3398D02*
G01X45486Y3843D01*
G01X45486Y4470D01*
G01X45930Y4915D01*
G01X46560Y4915D01*
G01X47005Y4470D01*
G01X47005Y3843D01*
G01X46560Y3398D01*
G01X45930Y3398D01*
G37*
G36*
G01X43390Y3398D02*
G01X42946Y3843D01*
G01X42946Y4470D01*
G01X43390Y4915D01*
G01X44020Y4915D01*
G01X44465Y4470D01*
G01X44465Y3843D01*
G01X44020Y3398D01*
G01X43390Y3398D01*
G37*
G36*
G01X40850Y3398D02*
G01X40406Y3843D01*
G01X40406Y4470D01*
G01X40850Y4915D01*
G01X41480Y4915D01*
G01X41925Y4470D01*
G01X41925Y3843D01*
G01X41480Y3398D01*
G01X40850Y3398D01*
G37*
G36*
G01X38310Y3398D02*
G01X37866Y3843D01*
G01X37866Y4470D01*
G01X38310Y4915D01*
G01X38940Y4915D01*
G01X39385Y4470D01*
G01X39385Y3843D01*
G01X38940Y3398D01*
G01X38310Y3398D01*
G37*
G36*
G01X35770Y3398D02*
G01X35326Y3843D01*
G01X35326Y4470D01*
G01X35770Y4915D01*
G01X36400Y4915D01*
G01X36845Y4470D01*
G01X36845Y3843D01*
G01X36400Y3398D01*
G01X35770Y3398D01*
G37*
G36*
G01X33230Y3398D02*
G01X32786Y3843D01*
G01X32786Y4470D01*
G01X33230Y4915D01*
G01X33860Y4915D01*
G01X34305Y4470D01*
G01X34305Y3843D01*
G01X33860Y3398D01*
G01X33230Y3398D01*
G37*
G36*
G01X30690Y3398D02*
G01X30246Y3843D01*
G01X30246Y4470D01*
G01X30690Y4915D01*
G01X31320Y4915D01*
G01X31765Y4470D01*
G01X31765Y3843D01*
G01X31320Y3398D01*
G01X30690Y3398D01*
G37*
G36*
G01X28150Y3398D02*
G01X27706Y3843D01*
G01X27706Y4470D01*
G01X28150Y4915D01*
G01X28780Y4915D01*
G01X29225Y4470D01*
G01X29225Y3843D01*
G01X28780Y3398D01*
G01X28150Y3398D01*
G37*
G36*
G01X25610Y3398D02*
G01X25166Y3843D01*
G01X25166Y4470D01*
G01X25610Y4915D01*
G01X26240Y4915D01*
G01X26685Y4470D01*
G01X26685Y3843D01*
G01X26240Y3398D01*
G01X25610Y3398D01*
G37*
G36*
G01X23070Y3398D02*
G01X22626Y3843D01*
G01X22626Y4470D01*
G01X23070Y4915D01*
G01X23700Y4915D01*
G01X24145Y4470D01*
G01X24145Y3843D01*
G01X23700Y3398D01*
G01X23070Y3398D01*
G37*
G36*
G01X20530Y3398D02*
G01X20086Y3843D01*
G01X20086Y4470D01*
G01X20530Y4915D01*
G01X21160Y4915D01*
G01X21605Y4470D01*
G01X21605Y3843D01*
G01X21160Y3398D01*
G01X20530Y3398D01*
G37*
G36*
G01X17990Y3398D02*
G01X17546Y3843D01*
G01X17546Y4470D01*
G01X17990Y4915D01*
G01X18620Y4915D01*
G01X19065Y4470D01*
G01X19065Y3843D01*
G01X18620Y3398D01*
G01X17990Y3398D01*
G37*
G36*
G01X15450Y3398D02*
G01X15006Y3843D01*
G01X15006Y4470D01*
G01X15450Y4915D01*
G01X16080Y4915D01*
G01X16525Y4470D01*
G01X16525Y3843D01*
G01X16080Y3398D01*
G01X15450Y3398D01*
G37*
G36*
G01X12910Y3398D02*
G01X12466Y3843D01*
G01X12466Y4470D01*
G01X12910Y4915D01*
G01X13540Y4915D01*
G01X13985Y4470D01*
G01X13985Y3843D01*
G01X13540Y3398D01*
G01X12910Y3398D01*
G37*
G36*
G01X10370Y3398D02*
G01X9926Y3843D01*
G01X9926Y4470D01*
G01X10370Y4915D01*
G01X11000Y4915D01*
G01X11445Y4470D01*
G01X11445Y3843D01*
G01X11000Y3398D01*
G01X10370Y3398D01*
G37*
G54D25*
G01X93726Y3282D03*
G54D26*
G01X96266Y3282D03*
G54D27*
G01X75438Y10267D03*
G54D28*
G01X77978Y10267D03*
G01X80518Y10267D03*
G54D27*
G01X60960Y4806D03*
G54D28*
G01X63500Y4806D03*
G01X66040Y4806D03*
G54D29*
G01X89535Y25380D03*
G54D30*
G01X89535Y27920D03*
G01X92075Y25380D03*
G01X92075Y27920D03*
G01X94615Y25380D03*
G01X94615Y27920D03*
G01X97155Y25380D03*
G01X97155Y27920D03*
G54D27*
G01X75565Y4425D03*
G54D28*
G01X78105Y4425D03*
G01X80645Y4425D03*
G54D27*
G01X61087Y10648D03*
G54D28*
G01X63627Y10648D03*
G01X66167Y10648D03*
G54D31*
G01X59944Y16617D03*
G01X59944Y29317D03*
G01X72517Y16617D03*
G01X72517Y29317D03*
G01X66294Y16617D03*
G01X66294Y29317D03*
G01X79375Y16744D03*
G01X79375Y29444D03*
G54D32*
G01X89789Y10394D03*
G01X92329Y10394D03*
G54D33*
G01X94869Y10394D03*
G54D32*
G01X97409Y10394D03*
M00*
M02*
