;Layer: Drill PTH
;EasyEDA v6.1.41, Thu, 16 May 2019 00:08:59 GMT
;b21515e386d141b59637374f5c53cbe5,dfa15b47affc40b8846523cd8aea0214,10
;Gerber Generator version 0.2
M48
METRIC,LZ,000.000
;Holesize 1 = 0.310 METRIC
T01C0.310
;Holesize 2 = 0.889 METRIC
T02C0.889
;Holesize 3 = 0.900 METRIC
T03C0.900
;Holesize 4 = 0.901 METRIC
T04C0.901
;Holesize 5 = 1.001 METRIC
T05C1.001
;Holesize 6 = 1.118 METRIC
T06C1.118
;Holesize 7 = 1.301 METRIC
T07C1.301
%
G05
G90
T01
X+046268Y+013744
X+053370Y+007036
T02
X+089535Y+025380
X+089535Y+027920
X+092075Y+025380
X+092075Y+027920
X+094615Y+025380
X+094615Y+027920
X+097155Y+025380
X+097155Y+027920
T03
X+059944Y+016617
X+059944Y+029317
X+072517Y+016617
X+072517Y+029317
X+066294Y+016617
X+066294Y+029317
X+079375Y+016744
X+079375Y+029444
T04
X+046246Y+029556G85X+046246Y+029557
X+043706Y+029556G85X+043706Y+029557
X+041166Y+029556G85X+041166Y+029557
X+038626Y+029556G85X+038626Y+029557
X+036086Y+029556G85X+036086Y+029557
X+033546Y+029556G85X+033546Y+029557
X+031006Y+029556G85X+031006Y+029557
X+028466Y+029556G85X+028466Y+029557
X+025926Y+029556G85X+025926Y+029557
X+023386Y+029556G85X+023386Y+029557
X+020846Y+029556G85X+020846Y+029557
X+018306Y+029556G85X+018306Y+029557
X+015766Y+029556G85X+015766Y+029557
X+013226Y+029556G85X+013226Y+029557
X+010686Y+029556G85X+010686Y+029557
X+046246Y+004156G85X+046246Y+004157
X+043706Y+004156G85X+043706Y+004157
X+041166Y+004156G85X+041166Y+004157
X+038626Y+004156G85X+038626Y+004157
X+036086Y+004156G85X+036086Y+004157
X+033546Y+004156G85X+033546Y+004157
X+031006Y+004156G85X+031006Y+004157
X+028466Y+004156G85X+028466Y+004157
X+025926Y+004156G85X+025926Y+004157
X+023386Y+004156G85X+023386Y+004157
X+020846Y+004156G85X+020846Y+004157
X+018306Y+004156G85X+018306Y+004157
X+015766Y+004156G85X+015766Y+004157
X+013226Y+004156G85X+013226Y+004157
X+010686Y+004156G85X+010686Y+004157
T05
X+089789Y+010394
X+092329Y+010394
X+094869Y+010394
X+097409Y+010394
T06
X+075438Y+010267
X+077978Y+010267
X+080518Y+010267
X+060960Y+004806
X+063500Y+004806
X+066040Y+004806
X+075565Y+004425
X+078105Y+004425
X+080645Y+004425
X+061087Y+010648
X+063627Y+010648
X+066167Y+010648
T07
X+093726Y+003282
X+096266Y+003282
M30
