G04 Layer: BottomLayer*
G04 EasyEDA v6.1.41, Thu, 16 May 2019 00:08:59 GMT*
G04 b21515e386d141b59637374f5c53cbe5,dfa15b47affc40b8846523cd8aea0214,10*
G04 Gerber Generator version 0.2*
G04 Scale: 100 percent, Rotated: No, Reflected: No *
G04 Dimensions in millimeters *
G04 leading zeros omitted , absolute positions ,3 integer and 3 decimal *
%FSLAX33Y33*%
%MOMM*%
G90*
G71D02*

%ADD11C,0.159995*%
%ADD12C,0.610006*%
%ADD13R,1.899996X1.899996*%
%ADD14C,1.899996*%
%ADD15R,1.905000X1.905000*%
%ADD16C,1.905000*%
%ADD17R,1.574800X1.574800*%
%ADD18C,1.574800*%
%ADD19C,1.879600*%
%ADD20R,1.399540X1.399540*%
%ADD21C,1.399540*%

%LPD*%
G54D11*
G01X46268Y13744D02*
G01X29039Y13744D01*
G01X13225Y29555D01*
G01X66167Y10648D02*
G01X66040Y10521D01*
G01X66040Y4806D01*
G01X92075Y27920D02*
G01X93167Y29012D01*
G01X97670Y29012D01*
G01X98186Y28494D01*
G01X98186Y13711D01*
G01X94869Y10394D01*
G01X94869Y10394D02*
G01X94869Y4679D01*
G01X96266Y3282D01*
G01X92329Y11336D02*
G01X97155Y16162D01*
G01X97155Y25380D01*
G01X92329Y10394D02*
G01X92329Y11336D01*
G01X93726Y3282D02*
G01X93726Y4473D01*
G01X92329Y10394D02*
G01X92329Y5870D01*
G01X93726Y4473D01*
G01X59944Y29317D02*
G01X61196Y30569D01*
G01X66873Y30569D01*
G01X67477Y29964D01*
G01X67477Y27589D01*
G01X62034Y22149D01*
G01X62034Y16919D01*
G01X50934Y5819D01*
G01X45366Y5819D01*
G01X43705Y4155D01*
G01X66294Y29317D02*
G01X62616Y29317D01*
G01X46494Y13195D01*
G01X45125Y13195D01*
G01X36085Y4155D01*
G01X53370Y7036D02*
G01X60881Y14549D01*
G01X70449Y14549D01*
G01X72517Y16617D01*
G01X59944Y16617D02*
G01X52334Y16617D01*
G01X39954Y4237D01*
G01X39954Y3962D01*
G01X39230Y3238D01*
G01X11605Y3238D01*
G01X10685Y4155D01*
G01X66294Y16617D02*
G01X66294Y24831D01*
G01X72194Y30731D01*
G01X86723Y30731D01*
G01X89535Y27920D01*
G01X79375Y29444D02*
G01X75438Y25507D01*
G01X75438Y10267D01*
G01X97155Y27920D02*
G01X95885Y26650D01*
G01X95885Y25141D01*
G01X82778Y12032D01*
G01X79743Y12032D01*
G01X77978Y10267D01*
G01X60960Y4806D02*
G01X62153Y4806D01*
G01X62153Y4806D02*
G01X62153Y4209D01*
G01X63949Y2413D01*
G01X80439Y2413D01*
G01X81950Y3924D01*
G01X81950Y8834D01*
G01X80518Y10267D01*
G01X94615Y27920D02*
G01X93345Y26650D01*
G01X93345Y25105D01*
G01X83799Y15560D01*
G01X81404Y15560D01*
G01X76761Y10917D01*
G01X76761Y5768D01*
G01X78105Y4425D01*
G01X63627Y10648D02*
G01X64841Y11862D01*
G01X66641Y11862D01*
G01X73601Y4902D01*
G01X73601Y4066D01*
G01X74437Y3228D01*
G01X76911Y3228D01*
G01X78105Y4425D01*
G01X75565Y4425D02*
G01X75565Y5618D01*
G01X72517Y29317D02*
G01X73700Y28133D01*
G01X73700Y7485D01*
G01X75565Y5618D01*
G01X61087Y10648D02*
G01X61087Y9454D01*
G01X61087Y9454D02*
G01X64770Y5768D01*
G01X64770Y4364D01*
G01X66319Y2814D01*
G01X79034Y2814D01*
G01X80645Y4425D01*
G36*
G01X46518Y28899D02*
G01X46903Y29284D01*
G01X46903Y29829D01*
G01X46518Y30214D01*
G01X45973Y30214D01*
G01X45588Y29829D01*
G01X45588Y29284D01*
G01X45973Y28899D01*
G01X46518Y28899D01*
G37*
G36*
G01X43978Y28899D02*
G01X44363Y29284D01*
G01X44363Y29829D01*
G01X43978Y30214D01*
G01X43433Y30214D01*
G01X43048Y29829D01*
G01X43048Y29284D01*
G01X43433Y28899D01*
G01X43978Y28899D01*
G37*
G36*
G01X41438Y28899D02*
G01X41823Y29284D01*
G01X41823Y29829D01*
G01X41438Y30214D01*
G01X40893Y30214D01*
G01X40508Y29829D01*
G01X40508Y29284D01*
G01X40893Y28899D01*
G01X41438Y28899D01*
G37*
G36*
G01X38898Y28899D02*
G01X39283Y29284D01*
G01X39283Y29829D01*
G01X38898Y30214D01*
G01X38353Y30214D01*
G01X37968Y29829D01*
G01X37968Y29284D01*
G01X38353Y28899D01*
G01X38898Y28899D01*
G37*
G36*
G01X36358Y28899D02*
G01X36743Y29284D01*
G01X36743Y29829D01*
G01X36358Y30214D01*
G01X35813Y30214D01*
G01X35428Y29829D01*
G01X35428Y29284D01*
G01X35813Y28899D01*
G01X36358Y28899D01*
G37*
G36*
G01X33818Y28899D02*
G01X34203Y29284D01*
G01X34203Y29829D01*
G01X33818Y30214D01*
G01X33273Y30214D01*
G01X32888Y29829D01*
G01X32888Y29284D01*
G01X33273Y28899D01*
G01X33818Y28899D01*
G37*
G36*
G01X31278Y28899D02*
G01X31663Y29284D01*
G01X31663Y29829D01*
G01X31278Y30214D01*
G01X30733Y30214D01*
G01X30348Y29829D01*
G01X30348Y29284D01*
G01X30733Y28899D01*
G01X31278Y28899D01*
G37*
G36*
G01X28738Y28899D02*
G01X29123Y29284D01*
G01X29123Y29829D01*
G01X28738Y30214D01*
G01X28193Y30214D01*
G01X27808Y29829D01*
G01X27808Y29284D01*
G01X28193Y28899D01*
G01X28738Y28899D01*
G37*
G36*
G01X26198Y28899D02*
G01X26583Y29284D01*
G01X26583Y29829D01*
G01X26198Y30214D01*
G01X25653Y30214D01*
G01X25268Y29829D01*
G01X25268Y29284D01*
G01X25653Y28899D01*
G01X26198Y28899D01*
G37*
G36*
G01X23658Y28899D02*
G01X24043Y29284D01*
G01X24043Y29829D01*
G01X23658Y30214D01*
G01X23113Y30214D01*
G01X22728Y29829D01*
G01X22728Y29284D01*
G01X23113Y28899D01*
G01X23658Y28899D01*
G37*
G36*
G01X21118Y28899D02*
G01X21503Y29284D01*
G01X21503Y29829D01*
G01X21118Y30214D01*
G01X20573Y30214D01*
G01X20188Y29829D01*
G01X20188Y29284D01*
G01X20573Y28899D01*
G01X21118Y28899D01*
G37*
G36*
G01X18578Y28899D02*
G01X18963Y29284D01*
G01X18963Y29829D01*
G01X18578Y30214D01*
G01X18033Y30214D01*
G01X17648Y29829D01*
G01X17648Y29284D01*
G01X18033Y28899D01*
G01X18578Y28899D01*
G37*
G36*
G01X16038Y28899D02*
G01X16423Y29284D01*
G01X16423Y29829D01*
G01X16038Y30214D01*
G01X15493Y30214D01*
G01X15108Y29829D01*
G01X15108Y29284D01*
G01X15493Y28899D01*
G01X16038Y28899D01*
G37*
G36*
G01X13498Y28899D02*
G01X13883Y29284D01*
G01X13883Y29829D01*
G01X13498Y30214D01*
G01X12953Y30214D01*
G01X12568Y29829D01*
G01X12568Y29284D01*
G01X12953Y28899D01*
G01X13498Y28899D01*
G37*
G36*
G01X10958Y28899D02*
G01X11343Y29284D01*
G01X11343Y29829D01*
G01X10958Y30214D01*
G01X10413Y30214D01*
G01X10028Y29829D01*
G01X10028Y29284D01*
G01X10413Y28899D01*
G01X10958Y28899D01*
G37*
G36*
G01X46518Y3499D02*
G01X46903Y3884D01*
G01X46903Y4429D01*
G01X46518Y4814D01*
G01X45973Y4814D01*
G01X45588Y4429D01*
G01X45588Y3884D01*
G01X45973Y3499D01*
G01X46518Y3499D01*
G37*
G36*
G01X43978Y3499D02*
G01X44363Y3884D01*
G01X44363Y4429D01*
G01X43978Y4814D01*
G01X43433Y4814D01*
G01X43048Y4429D01*
G01X43048Y3884D01*
G01X43433Y3499D01*
G01X43978Y3499D01*
G37*
G36*
G01X41438Y3499D02*
G01X41823Y3884D01*
G01X41823Y4429D01*
G01X41438Y4814D01*
G01X40893Y4814D01*
G01X40508Y4429D01*
G01X40508Y3884D01*
G01X40893Y3499D01*
G01X41438Y3499D01*
G37*
G36*
G01X38898Y3499D02*
G01X39283Y3884D01*
G01X39283Y4429D01*
G01X38898Y4814D01*
G01X38353Y4814D01*
G01X37968Y4429D01*
G01X37968Y3884D01*
G01X38353Y3499D01*
G01X38898Y3499D01*
G37*
G36*
G01X36358Y3499D02*
G01X36743Y3884D01*
G01X36743Y4429D01*
G01X36358Y4814D01*
G01X35813Y4814D01*
G01X35428Y4429D01*
G01X35428Y3884D01*
G01X35813Y3499D01*
G01X36358Y3499D01*
G37*
G36*
G01X33818Y3499D02*
G01X34203Y3884D01*
G01X34203Y4429D01*
G01X33818Y4814D01*
G01X33273Y4814D01*
G01X32888Y4429D01*
G01X32888Y3884D01*
G01X33273Y3499D01*
G01X33818Y3499D01*
G37*
G36*
G01X31278Y3499D02*
G01X31663Y3884D01*
G01X31663Y4429D01*
G01X31278Y4814D01*
G01X30733Y4814D01*
G01X30348Y4429D01*
G01X30348Y3884D01*
G01X30733Y3499D01*
G01X31278Y3499D01*
G37*
G36*
G01X28738Y3499D02*
G01X29123Y3884D01*
G01X29123Y4429D01*
G01X28738Y4814D01*
G01X28193Y4814D01*
G01X27808Y4429D01*
G01X27808Y3884D01*
G01X28193Y3499D01*
G01X28738Y3499D01*
G37*
G36*
G01X26198Y3499D02*
G01X26583Y3884D01*
G01X26583Y4429D01*
G01X26198Y4814D01*
G01X25653Y4814D01*
G01X25268Y4429D01*
G01X25268Y3884D01*
G01X25653Y3499D01*
G01X26198Y3499D01*
G37*
G36*
G01X23658Y3499D02*
G01X24043Y3884D01*
G01X24043Y4429D01*
G01X23658Y4814D01*
G01X23113Y4814D01*
G01X22728Y4429D01*
G01X22728Y3884D01*
G01X23113Y3499D01*
G01X23658Y3499D01*
G37*
G36*
G01X21118Y3499D02*
G01X21503Y3884D01*
G01X21503Y4429D01*
G01X21118Y4814D01*
G01X20573Y4814D01*
G01X20188Y4429D01*
G01X20188Y3884D01*
G01X20573Y3499D01*
G01X21118Y3499D01*
G37*
G36*
G01X18578Y3499D02*
G01X18963Y3884D01*
G01X18963Y4429D01*
G01X18578Y4814D01*
G01X18033Y4814D01*
G01X17648Y4429D01*
G01X17648Y3884D01*
G01X18033Y3499D01*
G01X18578Y3499D01*
G37*
G36*
G01X16038Y3499D02*
G01X16423Y3884D01*
G01X16423Y4429D01*
G01X16038Y4814D01*
G01X15493Y4814D01*
G01X15108Y4429D01*
G01X15108Y3884D01*
G01X15493Y3499D01*
G01X16038Y3499D01*
G37*
G36*
G01X13498Y3499D02*
G01X13883Y3884D01*
G01X13883Y4429D01*
G01X13498Y4814D01*
G01X12953Y4814D01*
G01X12568Y4429D01*
G01X12568Y3884D01*
G01X12953Y3499D01*
G01X13498Y3499D01*
G37*
G36*
G01X10958Y3499D02*
G01X11343Y3884D01*
G01X11343Y4429D01*
G01X10958Y4814D01*
G01X10413Y4814D01*
G01X10028Y4429D01*
G01X10028Y3884D01*
G01X10413Y3499D01*
G01X10958Y3499D01*
G37*
G54D13*
G01X93726Y3282D03*
G54D14*
G01X96266Y3282D03*
G54D15*
G01X75438Y10267D03*
G54D16*
G01X77978Y10267D03*
G01X80518Y10267D03*
G54D15*
G01X60960Y4806D03*
G54D16*
G01X63500Y4806D03*
G01X66040Y4806D03*
G54D17*
G01X89535Y25380D03*
G54D18*
G01X89535Y27920D03*
G01X92075Y25380D03*
G01X92075Y27920D03*
G01X94615Y25380D03*
G01X94615Y27920D03*
G01X97155Y25380D03*
G01X97155Y27920D03*
G54D15*
G01X75565Y4425D03*
G54D16*
G01X78105Y4425D03*
G01X80645Y4425D03*
G54D15*
G01X61087Y10648D03*
G54D16*
G01X63627Y10648D03*
G01X66167Y10648D03*
G54D19*
G01X59944Y16617D03*
G01X59944Y29317D03*
G01X72517Y16617D03*
G01X72517Y29317D03*
G01X66294Y16617D03*
G01X66294Y29317D03*
G01X79375Y16744D03*
G01X79375Y29444D03*
G54D20*
G01X89789Y10394D03*
G01X92329Y10394D03*
G54D21*
G01X94869Y10394D03*
G54D20*
G01X97409Y10394D03*
G54D12*
G01X46268Y13744D03*
G01X53370Y7036D03*
M00*
M02*
