G04 Layer: TopSilkLayer*
G04 EasyEDA v6.1.41, Thu, 16 May 2019 00:08:59 GMT*
G04 b21515e386d141b59637374f5c53cbe5,dfa15b47affc40b8846523cd8aea0214,10*
G04 Gerber Generator version 0.2*
G04 Scale: 100 percent, Rotated: No, Reflected: No *
G04 Dimensions in millimeters *
G04 leading zeros omitted , absolute positions ,3 integer and 3 decimal *
%FSLAX33Y33*%
%MOMM*%
G90*
G71D02*

%ADD10C,0.254000*%
%ADD22C,0.203200*%
%ADD23C,0.202999*%
%ADD24C,0.152400*%

%LPD*%
G54D22*
G01X97536Y4552D02*
G01X97536Y2012D01*
G01X92456Y2012D01*
G01X92456Y4552D01*
G01X94361Y4552D01*
G54D23*
G01X97536Y4552D02*
G01X94361Y4552D01*
G54D10*
G01X72898Y12713D02*
G01X83202Y12713D01*
G01X83202Y8212D02*
G01X83202Y12713D01*
G01X72898Y8212D02*
G01X83202Y8212D01*
G01X72898Y8179D02*
G01X72898Y12680D01*
G01X72898Y11813D02*
G01X83202Y11813D01*
G01X58420Y7252D02*
G01X68724Y7252D01*
G01X68724Y2751D02*
G01X68724Y7252D01*
G01X58420Y2751D02*
G01X68724Y2751D01*
G01X58420Y2718D02*
G01X58420Y7219D01*
G01X58420Y6352D02*
G01X68724Y6352D01*
G54D22*
G01X88265Y29190D02*
G01X88265Y24110D01*
G01X98425Y24110D01*
G01X98425Y29190D01*
G01X88265Y29190D01*
G54D10*
G01X73025Y6871D02*
G01X83329Y6871D01*
G01X83329Y2370D02*
G01X83329Y6871D01*
G01X73025Y2370D02*
G01X83329Y2370D01*
G01X73025Y2337D02*
G01X73025Y6838D01*
G01X73025Y5971D02*
G01X83329Y5971D01*
G01X58547Y13094D02*
G01X68851Y13094D01*
G01X68851Y8593D02*
G01X68851Y13094D01*
G01X58547Y8593D02*
G01X68851Y8593D01*
G01X58547Y8560D02*
G01X58547Y13061D01*
G01X58547Y12194D02*
G01X68851Y12194D01*
G01X61595Y18471D02*
G01X58293Y18471D01*
G01X58293Y18471D02*
G01X58293Y27462D01*
G01X58293Y27462D02*
G01X61595Y27462D01*
G01X61595Y27462D02*
G01X61595Y18471D01*
G01X74168Y18471D02*
G01X70866Y18471D01*
G01X70866Y18471D02*
G01X70866Y27462D01*
G01X70866Y27462D02*
G01X74168Y27462D01*
G01X74168Y27462D02*
G01X74168Y18471D01*
G01X67945Y18471D02*
G01X64643Y18471D01*
G01X64643Y18471D02*
G01X64643Y27462D01*
G01X64643Y27462D02*
G01X67945Y27462D01*
G01X67945Y27462D02*
G01X67945Y18471D01*
G01X81026Y18598D02*
G01X77724Y18598D01*
G01X77724Y18598D02*
G01X77724Y27589D01*
G01X77724Y27589D02*
G01X81026Y27589D01*
G01X81026Y27589D02*
G01X81026Y18598D01*
G01X88519Y9124D02*
G01X88519Y11664D01*
G01X88519Y11664D02*
G01X88519Y21824D01*
G01X88519Y21824D02*
G01X98679Y21824D01*
G01X98679Y21824D02*
G01X98679Y11664D01*
G01X98679Y11664D02*
G01X98679Y9124D01*
G01X98679Y9124D02*
G01X96139Y9124D01*
G01X96139Y9124D02*
G01X93599Y9124D01*
G01X93599Y9124D02*
G01X91059Y9124D01*
G01X91059Y9124D02*
G01X88519Y9124D01*
G01X88519Y11664D02*
G01X91059Y11664D01*
G01X91059Y11664D02*
G01X93599Y11664D01*
G01X93599Y11664D02*
G01X96139Y11664D01*
G01X96139Y11664D02*
G01X98679Y11664D01*
G01X91059Y11664D02*
G01X91059Y9124D01*
G01X93599Y11664D02*
G01X93599Y9124D01*
G01X96139Y11664D02*
G01X96139Y9124D01*
G54D24*
G01X52901Y16871D02*
G01X52850Y16975D01*
G01X52692Y17130D01*
G01X53785Y17130D01*
G01X91112Y3155D02*
G01X92202Y3155D01*
G01X91112Y3881D02*
G01X92202Y3881D01*
G01X91630Y3155D02*
G01X91630Y3881D01*
G01X91318Y4224D02*
G01X91267Y4328D01*
G01X91112Y4485D01*
G01X92202Y4485D01*
G01X78290Y14160D02*
G01X78186Y14110D01*
G01X78082Y14005D01*
G01X78028Y13901D01*
G01X77978Y13746D01*
G01X77978Y13487D01*
G01X78028Y13330D01*
G01X78082Y13226D01*
G01X78186Y13121D01*
G01X78290Y13071D01*
G01X78498Y13071D01*
G01X78600Y13121D01*
G01X78704Y13226D01*
G01X78757Y13330D01*
G01X78808Y13487D01*
G01X78808Y13746D01*
G01X78757Y13901D01*
G01X78704Y14005D01*
G01X78600Y14110D01*
G01X78498Y14160D01*
G01X78290Y14160D01*
G01X78445Y13279D02*
G01X78757Y12967D01*
G01X79151Y13955D02*
G01X79255Y14005D01*
G01X79413Y14160D01*
G01X79413Y13071D01*
G01X63812Y8699D02*
G01X63708Y8649D01*
G01X63604Y8544D01*
G01X63550Y8440D01*
G01X63500Y8285D01*
G01X63500Y8026D01*
G01X63550Y7869D01*
G01X63604Y7765D01*
G01X63708Y7660D01*
G01X63812Y7610D01*
G01X64020Y7610D01*
G01X64122Y7660D01*
G01X64226Y7765D01*
G01X64279Y7869D01*
G01X64330Y8026D01*
G01X64330Y8285D01*
G01X64279Y8440D01*
G01X64226Y8544D01*
G01X64122Y8649D01*
G01X64020Y8699D01*
G01X63812Y8699D01*
G01X63967Y7818D02*
G01X64279Y7506D01*
G01X64726Y8440D02*
G01X64726Y8494D01*
G01X64777Y8598D01*
G01X64830Y8649D01*
G01X64935Y8699D01*
G01X65140Y8699D01*
G01X65244Y8649D01*
G01X65298Y8598D01*
G01X65349Y8494D01*
G01X65349Y8389D01*
G01X65298Y8285D01*
G01X65194Y8128D01*
G01X64673Y7610D01*
G01X65402Y7610D01*
G01X93345Y30533D02*
G01X93345Y29444D01*
G01X93345Y30533D02*
G01X93812Y30533D01*
G01X93967Y30482D01*
G01X94020Y30432D01*
G01X94071Y30327D01*
G01X94071Y30170D01*
G01X94020Y30066D01*
G01X93967Y30015D01*
G01X93812Y29962D01*
G01X93345Y29962D01*
G01X94414Y30327D02*
G01X94518Y30378D01*
G01X94675Y30533D01*
G01X94675Y29444D01*
G01X78417Y8318D02*
G01X78313Y8268D01*
G01X78209Y8163D01*
G01X78155Y8059D01*
G01X78105Y7904D01*
G01X78105Y7645D01*
G01X78155Y7488D01*
G01X78209Y7384D01*
G01X78313Y7279D01*
G01X78417Y7229D01*
G01X78625Y7229D01*
G01X78727Y7279D01*
G01X78831Y7384D01*
G01X78884Y7488D01*
G01X78935Y7645D01*
G01X78935Y7904D01*
G01X78884Y8059D01*
G01X78831Y8163D01*
G01X78727Y8268D01*
G01X78625Y8318D01*
G01X78417Y8318D01*
G01X78572Y7437D02*
G01X78884Y7125D01*
G01X79382Y8318D02*
G01X79954Y8318D01*
G01X79641Y7904D01*
G01X79799Y7904D01*
G01X79903Y7851D01*
G01X79954Y7800D01*
G01X80007Y7645D01*
G01X80007Y7541D01*
G01X79954Y7384D01*
G01X79849Y7279D01*
G01X79695Y7229D01*
G01X79540Y7229D01*
G01X79382Y7279D01*
G01X79331Y7333D01*
G01X79278Y7437D01*
G01X63939Y14541D02*
G01X63835Y14491D01*
G01X63731Y14386D01*
G01X63677Y14282D01*
G01X63627Y14127D01*
G01X63627Y13868D01*
G01X63677Y13711D01*
G01X63731Y13607D01*
G01X63835Y13502D01*
G01X63939Y13452D01*
G01X64147Y13452D01*
G01X64249Y13502D01*
G01X64353Y13607D01*
G01X64406Y13711D01*
G01X64457Y13868D01*
G01X64457Y14127D01*
G01X64406Y14282D01*
G01X64353Y14386D01*
G01X64249Y14491D01*
G01X64147Y14541D01*
G01X63939Y14541D01*
G01X64094Y13660D02*
G01X64406Y13348D01*
G01X65321Y14541D02*
G01X64800Y13815D01*
G01X65580Y13815D01*
G01X65321Y14541D02*
G01X65321Y13452D01*
G01X56949Y22967D02*
G01X58039Y22967D01*
G01X56949Y22967D02*
G01X56949Y23434D01*
G01X57000Y23589D01*
G01X57050Y23642D01*
G01X57155Y23693D01*
G01X57259Y23693D01*
G01X57363Y23642D01*
G01X57416Y23589D01*
G01X57467Y23434D01*
G01X57467Y22967D01*
G01X57467Y23330D02*
G01X58039Y23693D01*
G01X57155Y24036D02*
G01X57104Y24140D01*
G01X56949Y24297D01*
G01X58039Y24297D01*
G01X69522Y22967D02*
G01X70612Y22967D01*
G01X69522Y22967D02*
G01X69522Y23434D01*
G01X69573Y23589D01*
G01X69623Y23642D01*
G01X69728Y23693D01*
G01X69832Y23693D01*
G01X69936Y23642D01*
G01X69989Y23589D01*
G01X70040Y23434D01*
G01X70040Y22967D01*
G01X70040Y23330D02*
G01X70612Y23693D01*
G01X69522Y24140D02*
G01X69522Y24711D01*
G01X69936Y24402D01*
G01X69936Y24557D01*
G01X69989Y24661D01*
G01X70040Y24711D01*
G01X70195Y24765D01*
G01X70299Y24765D01*
G01X70457Y24711D01*
G01X70561Y24607D01*
G01X70612Y24452D01*
G01X70612Y24297D01*
G01X70561Y24140D01*
G01X70507Y24089D01*
G01X70403Y24036D01*
G01X63299Y22967D02*
G01X64389Y22967D01*
G01X63299Y22967D02*
G01X63299Y23434D01*
G01X63350Y23589D01*
G01X63400Y23642D01*
G01X63505Y23693D01*
G01X63609Y23693D01*
G01X63713Y23642D01*
G01X63766Y23589D01*
G01X63817Y23434D01*
G01X63817Y22967D01*
G01X63817Y23330D02*
G01X64389Y23693D01*
G01X63558Y24089D02*
G01X63505Y24089D01*
G01X63400Y24140D01*
G01X63350Y24193D01*
G01X63299Y24297D01*
G01X63299Y24503D01*
G01X63350Y24607D01*
G01X63400Y24661D01*
G01X63505Y24711D01*
G01X63609Y24711D01*
G01X63713Y24661D01*
G01X63870Y24557D01*
G01X64389Y24036D01*
G01X64389Y24765D01*
G01X76380Y23094D02*
G01X77470Y23094D01*
G01X76380Y23094D02*
G01X76380Y23561D01*
G01X76431Y23716D01*
G01X76481Y23769D01*
G01X76586Y23820D01*
G01X76690Y23820D01*
G01X76794Y23769D01*
G01X76847Y23716D01*
G01X76898Y23561D01*
G01X76898Y23094D01*
G01X76898Y23457D02*
G01X77470Y23820D01*
G01X76380Y24684D02*
G01X77106Y24163D01*
G01X77106Y24943D01*
G01X76380Y24684D02*
G01X77470Y24684D01*
G01X93599Y23167D02*
G01X93599Y22078D01*
G01X93599Y23167D02*
G01X94015Y22078D01*
G01X94429Y23167D02*
G01X94015Y22078D01*
G01X94429Y23167D02*
G01X94429Y22078D01*
G01X95084Y23167D02*
G01X94980Y23116D01*
G01X94876Y23012D01*
G01X94825Y22908D01*
G01X94772Y22753D01*
G01X94772Y22494D01*
G01X94825Y22337D01*
G01X94876Y22232D01*
G01X94980Y22128D01*
G01X95084Y22078D01*
G01X95293Y22078D01*
G01X95397Y22128D01*
G01X95501Y22232D01*
G01X95552Y22337D01*
G01X95605Y22494D01*
G01X95605Y22753D01*
G01X95552Y22908D01*
G01X95501Y23012D01*
G01X95397Y23116D01*
G01X95293Y23167D01*
G01X95084Y23167D01*
G01X95948Y23167D02*
G01X95948Y22078D01*
G01X95948Y23167D02*
G01X96311Y23167D01*
G01X96466Y23116D01*
G01X96570Y23012D01*
G01X96621Y22908D01*
G01X96674Y22753D01*
G01X96674Y22494D01*
G01X96621Y22337D01*
G01X96570Y22232D01*
G01X96466Y22128D01*
G01X96311Y22078D01*
G01X95948Y22078D01*
G01X97017Y22961D02*
G01X97121Y23012D01*
G01X97276Y23167D01*
G01X97276Y22078D01*
M00*
M02*
